<?xml version="1.0" encoding="iso-8859-1"?>
<!-- Generator: Adobe Illustrator 19.0.0, SVG Export Plug-In . SVG Version: 6.00 Build 0)  -->
<svg version="1.1" id="Capa_1" xmlns="http://www.w3.org/2000/svg" xmlns:xlink="http://www.w3.org/1999/xlink" x="0px" y="0px"
	 viewBox="0 0 512 512" style="enable-background:new 0 0 512 512; fill:#75163B;" xml:space="preserve">
<g>
	<g>
		<g>
			<path d="M473.6,134.4c-25.6-24-57.6-36.8-92.8-36.8c-35.717,0-69.956,15.391-94.324,41.188c-1.663-1.366-3.272-2.785-4.876-4.388
				c-12.8-12.8-22.4-30.4-28.8-48C233.6,36.8,185.6,1.6,131.2,1.6C96,1.6,62.4,14.4,38.4,38.4S0,96,0,129.6c0,9.6,1.6,19.2,3.2,28.8
				C17.6,220.8,48,276.8,94.4,323.2c3.367,3.367,7.176,6.734,10.963,10.101C98.285,350.378,94.88,369.193,96,388.8
				c0,4.8,1.6,11.2,1.6,16c6.4,35.2,25.6,64,54.4,83.2c20.8,14.4,46.4,22.4,72,22.4c9.6,0,17.6,0,25.6-3.2
				c65.6-12.8,123.2-43.2,169.6-89.6c44.8-44.8,75.2-102.4,89.6-164.8c1.6-8,3.2-17.6,3.2-27.2C512,192,497.6,158.4,473.6,134.4z
				 M115.2,300.8C73.6,259.2,46.4,208,33.6,152c-1.6-6.4-1.6-14.4-1.6-20.8c0-54.4,44.8-99.2,97.6-96c41.6,0,78.4,25.6,92.8,64
				c8,20.8,20.8,41.6,36.8,59.2c2.572,2.572,5.149,4.878,7.825,7.037c-2.978,5.408-5.612,11.063-7.825,16.963
				c-0.994,2.982-2.075,5.878-3.224,8.706c-5.959-4.502-11.474-9.004-15.977-13.506c-4.8-4.8-8-11.2-12.8-16l-25.6,19.2
				c4.8,6.4,9.6,11.2,16,17.6c6.473,7.551,14.402,14.372,22.803,20.469c-3.086,4.092-6.414,7.942-10.003,11.531
				c-14.4,14.4-32,24-52.8,32c-23.167,9.412-42.712,24.734-56.894,43.864C118.871,304.466,117.035,302.635,115.2,300.8z M478.4,248
				c-12.8,56-40,108.8-81.6,148.8c-41.6,41.6-94.4,68.8-152,80c-52.8,9.6-104-24-113.6-76.8c-1.6-3.2-1.6-8-1.6-12.8
				c-1.6-41.6,22.4-78.4,60.8-94.4c24-9.6,44.8-22.4,64-40c14.4-17.6,27.2-36.8,35.2-59.2c14.4-38.4,51.2-64,92.8-64
				c25.6,0,49.6,9.6,68.8,28.8c17.6,17.6,28.8,43.2,28.8,68.8C480,233.6,480,241.6,478.4,248z"/>
			<path d="M272,272c-20.8,19.2-44.8,35.2-72,44.8l11.2,30.4c30.4-12.8,59.2-28.8,83.2-52.8c4.8-4.8,9.6-11.2,14.4-16l-25.6-19.2
				C280,264,275.2,268.8,272,272z"/>
			<path d="M300.8,233.6l27.2,16c6.4-9.6,11.2-20.8,16-32l-30.4-11.2C310.4,216,305.6,225.6,300.8,233.6z"/>
			<path d="M211.2,137.6c-4.8-9.6-9.6-17.6-12.8-27.2L168,121.6c3.2,9.6,9.6,20.8,14.4,30.4L211.2,137.6z"/>
		</g>
	</g>
</g>
<g>
</g>
<g>
</g>
<g>
</g>
<g>
</g>
<g>
</g>
<g>
</g>
<g>
</g>
<g>
</g>
<g>
</g>
<g>
</g>
<g>
</g>
<g>
</g>
<g>
</g>
<g>
</g>
<g>
</g>
</svg>
