<svg id="Outline" enable-background="new 0 0 512 512" height="512" viewBox="0 0 512 512" width="512" style = "fill:#75163B;" xmlns="http://www.w3.org/2000/svg"><path d="m89.2 164.2c1.5 2.4 4 3.8 6.8 3.8h56c7.3 9.7 18.9 16 32 16s24.7-6.3 32-16h56c2.8 0 5.3-1.4 6.8-3.8s1.6-5.3.4-7.8l-6.2-12.4 6.2-12.4c1.2-2.5 1.1-5.4-.4-7.8s-4-3.8-6.8-3.8h-56c-7.3-9.7-18.9-16-32-16s-24.7 6.3-32 16h-56c-2.8 0-5.3 1.4-6.8 3.8s-1.6 5.3-.4 7.8l6.2 12.4-6.2 12.4c-1.2 2.5-1.1 5.4.4 7.8zm169.9-28.2-2.2 4.4c-1.1 2.3-1.1 4.9 0 7.2l2.2 4.4h-35.9c.5-2.6.8-5.3.8-8s-.3-5.4-.8-8zm-75.1-16c13.2 0 24 10.8 24 24s-10.8 24-24 24-24-10.8-24-24 10.8-24 24-24zm-72.8 20.4-2.2-4.4h35.9c-.5 2.6-.8 5.3-.8 8s.3 5.4.8 8h-35.9l2.2-4.4c1.1-2.3 1.1-4.9 0-7.2z"/><path d="m492.4 233.3-21.4-14.2-7.2-29c-.9-3.6-4.1-6.1-7.8-6.1h-110.1c-5.4-38.9-13.4-73.9-19.1-96h9.1c4.4 0 8-3.6 8-8v-48c0-4.4-3.6-8-8-8h-303.9c-4.4 0-8 3.6-8 8v48c0 4.4 3.6 8 8 8h9.1c-9.2 36.1-25.1 108.4-25.1 176 0 59.2 6.2 110 10.9 140.2v.1c2 12.7 3.7 21.7 4.6 26.2-4.5 7.5-15.5 28.2-15.5 49.5 0 4.4 3.6 8 8 8h464c4.4 0 8-3.6 8-8v-240c0-2.7-1.3-5.2-3.6-6.7zm-73 6.7h-27.4c-4.4 0-8 3.6-8 8s3.6 8 8 8h24v140.7c-14.7-12.5-39.9-28.7-72-28.7s-57.3 16.2-72 28.8v-140.8h88c4.4 0 8-3.6 8-8s-3.6-8-8-8h-82.2l22.9-40h141.6zm-227.4 16c0-19.3 13.8-35.5 32-39.2v23.2c0 13.2-10.8 24-24 24h-8zm-16 8h-8c-13.2 0-24-10.8-24-24v-23.2c18.2 3.7 32 19.9 32 39.2zm16 80c0-19.3 13.8-35.5 32-39.2v23.2c0 13.2-10.8 24-24 24h-8zm-16 8h-8c-13.2 0-24-10.8-24-24v-23.2c18.2 3.7 32 19.9 32 39.2zm16 80c0-19.3 13.8-35.5 32-39.2v23.2c0 13.2-10.8 24-24 24h-8zm-16 8h-8c-13.2 0-24-10.8-24-24v-23.2c18.2 3.7 32 19.9 32 39.2zm16 16h8c22.1 0 40-17.9 40-40v-32c0-4.4-3.6-8-8-8-15.7 0-29.8 6.5-40 16.9v-24.9h8c18.9 0 34.7-13.2 38.9-30.8 5.8 2 11.5 4.4 17.1 7v127.8h-64zm-152-416h288v32h-288zm-8 224c0-68.4 16.8-142.1 25.6-176h252.7c5.4 20.9 13.8 56.3 19.4 96h-33.7c-2.9 0-5.5 1.5-6.9 4l-32 56c-.7 1.2-1.1 2.6-1.1 4v78.7c-5.2-2.2-10.6-4.2-16-6v-24.7c0-4.4-3.6-8-8-8-15.7 0-29.8 6.5-40 16.9v-24.9h8c22.1 0 40-17.9 40-40v-32c0-4.4-3.6-8-8-8-20.3 0-38.2 10.9-48 27.2-9.8-16.3-27.7-27.2-48-27.2-4.4 0-8 3.6-8 8v32c0 22.1 17.9 40 40 40h8v24.9c-10.2-10.4-24.3-16.9-40-16.9-4.4 0-8 3.6-8 8v24.7c-35.5 11.4-66.4 33.5-88 62.7-4-29.9-8-71.9-8-119.4zm14.7 172.4c1.2-1.8 1.6-4 1.2-6.2-.1-.2-1.9-8.6-4.3-23.1 18.6-32.3 49.2-57.3 85.5-69.9 4.2 17.6 20 30.8 38.9 30.8h8v24.9c-10.2-10.4-24.3-16.9-40-16.9-4.4 0-8 3.6-8 8v32c0 22.1 17.9 40 40 40h8v16h-143.4c2.8-18.4 13.9-35.4 14.1-35.6zm225.3-17.4c7-7.7 34.5-35 72-35s65 27.3 72 35v53h-144zm208 53h-16v-168c0-4.4-3.6-8-8-8s-8 3.6-8 8v168h-16v-216h16c4.4 0 8-3.6 8-8s-3.6-8-8-8h-10.2l15.3-26.7 3.2 12.7c.5 1.9 1.7 3.6 3.3 4.7l20.4 13.6z"/><path d="m344 288c-22.1 0-40 14.4-40 32s17.9 32 40 32 40-14.4 40-32-17.9-32-40-32zm0 48c-13 0-24-7.3-24-16s11-16 24-16 24 7.3 24 16-11 16-24 16z"/></svg>